<svg xmlns="http://www.w3.org/2000/svg" viewBox="0 0 128 128" width="128" height="128">
  <!-- Skull -->
  <ellipse cx="64" cy="52" rx="40" ry="38" fill="white"/>
  <!-- Left eye -->
  <ellipse cx="50" cy="46" rx="10" ry="11" fill="black"/>
  <!-- Right eye -->
  <ellipse cx="78" cy="46" rx="10" ry="11" fill="black"/>
  <!-- Nose -->
  <path d="M60 60 L64 68 L68 60 Z" fill="black"/>
  <!-- Teeth / jaw -->
  <rect x="48" y="72" width="6" height="10" rx="1" fill="white"/>
  <rect x="57" y="72" width="6" height="10" rx="1" fill="white"/>
  <rect x="66" y="72" width="6" height="10" rx="1" fill="white"/>
  <rect x="75" y="72" width="6" height="10" rx="1" fill="white"/>
  <!-- Crossbones -->
  <g fill="white" stroke="white" stroke-width="1">
    <line x1="20" y1="88" x2="108" y2="120" stroke="white" stroke-width="10" stroke-linecap="round"/>
    <line x1="108" y1="88" x2="20" y2="120" stroke="white" stroke-width="10" stroke-linecap="round"/>
    <!-- Bone ends -->
    <circle cx="20" cy="88" r="7"/>
    <circle cx="108" cy="88" r="7"/>
    <circle cx="20" cy="120" r="7"/>
    <circle cx="108" cy="120" r="7"/>
  </g>
</svg>
